<svg class="widget-dartboard highlight" version="1.1" x="0px" y="0px" width="787px" height="774px" viewBox="0 0 787 774"><g><g class="sector sector_20 dark" transform="rotate(0, 394, 387)"><path class="single little small inner" d="M401 201.327c7.521 0 15 0.4 22.3 1.319l-19.938 152.518c-0.796-0.056-1.596-0.095-2.406-0.095 c-1.435 0-2.846 0.1-4.235 0.274l-28.171-151.236C379.217 202.3 390 201.3 401 201.327z"></path><path class="single fat outer" d="M346.042 83.046l18.884 101.4 c11.825-2.069 23.87-3.111 36.074-3.111c8.396 0 16.7 0.5 24.9 1.484l13.367-102.25c-12.629-1.547-25.408-2.331-38.308-2.331 C382.4 78.2 364.1 79.8 346 83.046z"></path><path class="double" d="M401 75.214c13.03 0 25.9 0.8 38.7 2.355l2.045-15.642 c-14.604-1.835-28.238-2.729-41.611-2.729c-18.558 0-37.395 1.772-57.521 5.416l2.884 15.5 C363.681 76.9 382.2 75.2 401 75.214z"></path><path class="triple" d="M365.476 187.372l2.567 13.784c10.804-1.88 21.808-2.83 32.957-2.83 c7.652 0 15.2 0.5 22.7 1.344l1.816-13.901c-8.097-0.964-16.285-1.459-24.551-1.459 C388.981 184.3 377.1 185.3 365.5 187.372z"></path><text class="score" transform="matrix(1 0 0 1 375.4799 40)">20</text></g><g class="sector sector_1 light" transform="rotate(18, 394, 387)"><path class="single little small inner" d="M401 201.327c7.521 0 15 0.4 22.3 1.319l-19.938 152.518c-0.796-0.056-1.596-0.095-2.406-0.095 c-1.435 0-2.846 0.1-4.235 0.274l-28.171-151.236C379.217 202.3 390 201.3 401 201.327z"></path><path class="single fat outer" d="M346.042 83.046l18.884 101.4 c11.825-2.069 23.87-3.111 36.074-3.111c8.396 0 16.7 0.5 24.9 1.484l13.367-102.25c-12.629-1.547-25.408-2.331-38.308-2.331 C382.4 78.2 364.1 79.8 346 83.046z"></path><path class="double" d="M401 75.214c13.03 0 25.9 0.8 38.7 2.355l2.045-15.642 c-14.604-1.835-28.238-2.729-41.611-2.729c-18.558 0-37.395 1.772-57.521 5.416l2.884 15.5 C363.681 76.9 382.2 75.2 401 75.214z"></path><path class="triple" d="M365.476 187.372l2.567 13.784c10.804-1.88 21.808-2.83 32.957-2.83 c7.652 0 15.2 0.5 22.7 1.344l1.816-13.901c-8.097-0.964-16.285-1.459-24.551-1.459 C388.981 184.3 377.1 185.3 365.5 187.372z"></path><text class="score" transform="matrix(1 0 0 1 375.4799 40)">1</text></g><g class="sector sector_18 dark" transform="rotate(36, 394, 387)"><path class="single little small inner" d="M401 201.327c7.521 0 15 0.4 22.3 1.319l-19.938 152.518c-0.796-0.056-1.596-0.095-2.406-0.095 c-1.435 0-2.846 0.1-4.235 0.274l-28.171-151.236C379.217 202.3 390 201.3 401 201.327z"></path><path class="single fat outer" d="M346.042 83.046l18.884 101.4 c11.825-2.069 23.87-3.111 36.074-3.111c8.396 0 16.7 0.5 24.9 1.484l13.367-102.25c-12.629-1.547-25.408-2.331-38.308-2.331 C382.4 78.2 364.1 79.8 346 83.046z"></path><path class="double" d="M401 75.214c13.03 0 25.9 0.8 38.7 2.355l2.045-15.642 c-14.604-1.835-28.238-2.729-41.611-2.729c-18.558 0-37.395 1.772-57.521 5.416l2.884 15.5 C363.681 76.9 382.2 75.2 401 75.214z"></path><path class="triple" d="M365.476 187.372l2.567 13.784c10.804-1.88 21.808-2.83 32.957-2.83 c7.652 0 15.2 0.5 22.7 1.344l1.816-13.901c-8.097-0.964-16.285-1.459-24.551-1.459 C388.981 184.3 377.1 185.3 365.5 187.372z"></path><text class="score" transform="matrix(1 0 0 1 375.4799 40)">18</text></g><g class="sector sector_4 light" transform="rotate(54, 394, 387)"><path class="single little small inner" d="M401 201.327c7.521 0 15 0.4 22.3 1.319l-19.938 152.518c-0.796-0.056-1.596-0.095-2.406-0.095 c-1.435 0-2.846 0.1-4.235 0.274l-28.171-151.236C379.217 202.3 390 201.3 401 201.327z"></path><path class="single fat outer" d="M346.042 83.046l18.884 101.4 c11.825-2.069 23.87-3.111 36.074-3.111c8.396 0 16.7 0.5 24.9 1.484l13.367-102.25c-12.629-1.547-25.408-2.331-38.308-2.331 C382.4 78.2 364.1 79.8 346 83.046z"></path><path class="double" d="M401 75.214c13.03 0 25.9 0.8 38.7 2.355l2.045-15.642 c-14.604-1.835-28.238-2.729-41.611-2.729c-18.558 0-37.395 1.772-57.521 5.416l2.884 15.5 C363.681 76.9 382.2 75.2 401 75.214z"></path><path class="triple" d="M365.476 187.372l2.567 13.784c10.804-1.88 21.808-2.83 32.957-2.83 c7.652 0 15.2 0.5 22.7 1.344l1.816-13.901c-8.097-0.964-16.285-1.459-24.551-1.459 C388.981 184.3 377.1 185.3 365.5 187.372z"></path><text class="score" transform="matrix(1 0 0 1 375.4799 40)">4</text></g><g class="sector sector_13 dark" transform="rotate(72, 394, 387)"><path class="single little small inner" d="M401 201.327c7.521 0 15 0.4 22.3 1.319l-19.938 152.518c-0.796-0.056-1.596-0.095-2.406-0.095 c-1.435 0-2.846 0.1-4.235 0.274l-28.171-151.236C379.217 202.3 390 201.3 401 201.327z"></path><path class="single fat outer" d="M346.042 83.046l18.884 101.4 c11.825-2.069 23.87-3.111 36.074-3.111c8.396 0 16.7 0.5 24.9 1.484l13.367-102.25c-12.629-1.547-25.408-2.331-38.308-2.331 C382.4 78.2 364.1 79.8 346 83.046z"></path><path class="double" d="M401 75.214c13.03 0 25.9 0.8 38.7 2.355l2.045-15.642 c-14.604-1.835-28.238-2.729-41.611-2.729c-18.558 0-37.395 1.772-57.521 5.416l2.884 15.5 C363.681 76.9 382.2 75.2 401 75.214z"></path><path class="triple" d="M365.476 187.372l2.567 13.784c10.804-1.88 21.808-2.83 32.957-2.83 c7.652 0 15.2 0.5 22.7 1.344l1.816-13.901c-8.097-0.964-16.285-1.459-24.551-1.459 C388.981 184.3 377.1 185.3 365.5 187.372z"></path><text class="score" transform="matrix(1 0 0 1 375.4799 40)">13</text></g><g class="sector sector_6 light" transform="rotate(90, 394, 387)"><path class="single little small inner" d="M401 201.327c7.521 0 15 0.4 22.3 1.319l-19.938 152.518c-0.796-0.056-1.596-0.095-2.406-0.095 c-1.435 0-2.846 0.1-4.235 0.274l-28.171-151.236C379.217 202.3 390 201.3 401 201.327z"></path><path class="single fat outer" d="M346.042 83.046l18.884 101.4 c11.825-2.069 23.87-3.111 36.074-3.111c8.396 0 16.7 0.5 24.9 1.484l13.367-102.25c-12.629-1.547-25.408-2.331-38.308-2.331 C382.4 78.2 364.1 79.8 346 83.046z"></path><path class="double" d="M401 75.214c13.03 0 25.9 0.8 38.7 2.355l2.045-15.642 c-14.604-1.835-28.238-2.729-41.611-2.729c-18.558 0-37.395 1.772-57.521 5.416l2.884 15.5 C363.681 76.9 382.2 75.2 401 75.214z"></path><path class="triple" d="M365.476 187.372l2.567 13.784c10.804-1.88 21.808-2.83 32.957-2.83 c7.652 0 15.2 0.5 22.7 1.344l1.816-13.901c-8.097-0.964-16.285-1.459-24.551-1.459 C388.981 184.3 377.1 185.3 365.5 187.372z"></path><text class="score" transform="matrix(1 0 0 1 375.4799 40)">6</text></g><g class="sector sector_10 dark" transform="rotate(108, 394, 387)"><path class="single little small inner" d="M401 201.327c7.521 0 15 0.4 22.3 1.319l-19.938 152.518c-0.796-0.056-1.596-0.095-2.406-0.095 c-1.435 0-2.846 0.1-4.235 0.274l-28.171-151.236C379.217 202.3 390 201.3 401 201.327z"></path><path class="single fat outer" d="M346.042 83.046l18.884 101.4 c11.825-2.069 23.87-3.111 36.074-3.111c8.396 0 16.7 0.5 24.9 1.484l13.367-102.25c-12.629-1.547-25.408-2.331-38.308-2.331 C382.4 78.2 364.1 79.8 346 83.046z"></path><path class="double" d="M401 75.214c13.03 0 25.9 0.8 38.7 2.355l2.045-15.642 c-14.604-1.835-28.238-2.729-41.611-2.729c-18.558 0-37.395 1.772-57.521 5.416l2.884 15.5 C363.681 76.9 382.2 75.2 401 75.214z"></path><path class="triple" d="M365.476 187.372l2.567 13.784c10.804-1.88 21.808-2.83 32.957-2.83 c7.652 0 15.2 0.5 22.7 1.344l1.816-13.901c-8.097-0.964-16.285-1.459-24.551-1.459 C388.981 184.3 377.1 185.3 365.5 187.372z"></path><text class="score" transform="matrix(1 0 0 1 375.4799 40)">10</text></g><g class="sector sector_15 light" transform="rotate(126, 394, 387)"><path class="single little small inner" d="M401 201.327c7.521 0 15 0.4 22.3 1.319l-19.938 152.518c-0.796-0.056-1.596-0.095-2.406-0.095 c-1.435 0-2.846 0.1-4.235 0.274l-28.171-151.236C379.217 202.3 390 201.3 401 201.327z"></path><path class="single fat outer" d="M346.042 83.046l18.884 101.4 c11.825-2.069 23.87-3.111 36.074-3.111c8.396 0 16.7 0.5 24.9 1.484l13.367-102.25c-12.629-1.547-25.408-2.331-38.308-2.331 C382.4 78.2 364.1 79.8 346 83.046z"></path><path class="double" d="M401 75.214c13.03 0 25.9 0.8 38.7 2.355l2.045-15.642 c-14.604-1.835-28.238-2.729-41.611-2.729c-18.558 0-37.395 1.772-57.521 5.416l2.884 15.5 C363.681 76.9 382.2 75.2 401 75.214z"></path><path class="triple" d="M365.476 187.372l2.567 13.784c10.804-1.88 21.808-2.83 32.957-2.83 c7.652 0 15.2 0.5 22.7 1.344l1.816-13.901c-8.097-0.964-16.285-1.459-24.551-1.459 C388.981 184.3 377.1 185.3 365.5 187.372z"></path><text class="score" transform="matrix(1 0 0 1 375.4799 40)">15</text></g><g class="sector sector_2 dark" transform="rotate(144, 394, 387)"><path class="single little small inner" d="M401 201.327c7.521 0 15 0.4 22.3 1.319l-19.938 152.518c-0.796-0.056-1.596-0.095-2.406-0.095 c-1.435 0-2.846 0.1-4.235 0.274l-28.171-151.236C379.217 202.3 390 201.3 401 201.327z"></path><path class="single fat outer" d="M346.042 83.046l18.884 101.4 c11.825-2.069 23.87-3.111 36.074-3.111c8.396 0 16.7 0.5 24.9 1.484l13.367-102.25c-12.629-1.547-25.408-2.331-38.308-2.331 C382.4 78.2 364.1 79.8 346 83.046z"></path><path class="double" d="M401 75.214c13.03 0 25.9 0.8 38.7 2.355l2.045-15.642 c-14.604-1.835-28.238-2.729-41.611-2.729c-18.558 0-37.395 1.772-57.521 5.416l2.884 15.5 C363.681 76.9 382.2 75.2 401 75.214z"></path><path class="triple" d="M365.476 187.372l2.567 13.784c10.804-1.88 21.808-2.83 32.957-2.83 c7.652 0 15.2 0.5 22.7 1.344l1.816-13.901c-8.097-0.964-16.285-1.459-24.551-1.459 C388.981 184.3 377.1 185.3 365.5 187.372z"></path><text class="score" transform="matrix(1 0 0 1 375.4799 40)">2</text></g><g class="sector sector_17 light" transform="rotate(162, 394, 387)"><path class="single little small inner" d="M401 201.327c7.521 0 15 0.4 22.3 1.319l-19.938 152.518c-0.796-0.056-1.596-0.095-2.406-0.095 c-1.435 0-2.846 0.1-4.235 0.274l-28.171-151.236C379.217 202.3 390 201.3 401 201.327z"></path><path class="single fat outer highlight" d="M346.042 83.046l18.884 101.4 c11.825-2.069 23.87-3.111 36.074-3.111c8.396 0 16.7 0.5 24.9 1.484l13.367-102.25c-12.629-1.547-25.408-2.331-38.308-2.331 C382.4 78.2 364.1 79.8 346 83.046z"></path><path class="double" d="M401 75.214c13.03 0 25.9 0.8 38.7 2.355l2.045-15.642 c-14.604-1.835-28.238-2.729-41.611-2.729c-18.558 0-37.395 1.772-57.521 5.416l2.884 15.5 C363.681 76.9 382.2 75.2 401 75.214z"></path><path class="triple" d="M365.476 187.372l2.567 13.784c10.804-1.88 21.808-2.83 32.957-2.83 c7.652 0 15.2 0.5 22.7 1.344l1.816-13.901c-8.097-0.964-16.285-1.459-24.551-1.459 C388.981 184.3 377.1 185.3 365.5 187.372z"></path><text class="score highlight" transform="matrix(1 0 0 1 375.4799 40)">17</text></g><g class="sector sector_3 dark" transform="rotate(180, 394, 387)"><path class="single little small inner" d="M401 201.327c7.521 0 15 0.4 22.3 1.319l-19.938 152.518c-0.796-0.056-1.596-0.095-2.406-0.095 c-1.435 0-2.846 0.1-4.235 0.274l-28.171-151.236C379.217 202.3 390 201.3 401 201.327z"></path><path class="single fat outer" d="M346.042 83.046l18.884 101.4 c11.825-2.069 23.87-3.111 36.074-3.111c8.396 0 16.7 0.5 24.9 1.484l13.367-102.25c-12.629-1.547-25.408-2.331-38.308-2.331 C382.4 78.2 364.1 79.8 346 83.046z"></path><path class="double" d="M401 75.214c13.03 0 25.9 0.8 38.7 2.355l2.045-15.642 c-14.604-1.835-28.238-2.729-41.611-2.729c-18.558 0-37.395 1.772-57.521 5.416l2.884 15.5 C363.681 76.9 382.2 75.2 401 75.214z"></path><path class="triple" d="M365.476 187.372l2.567 13.784c10.804-1.88 21.808-2.83 32.957-2.83 c7.652 0 15.2 0.5 22.7 1.344l1.816-13.901c-8.097-0.964-16.285-1.459-24.551-1.459 C388.981 184.3 377.1 185.3 365.5 187.372z"></path><text class="score" transform="matrix(1 0 0 1 375.4799 40)">3</text></g><g class="sector sector_19 light" transform="rotate(198, 394, 387)"><path class="single little small inner" d="M401 201.327c7.521 0 15 0.4 22.3 1.319l-19.938 152.518c-0.796-0.056-1.596-0.095-2.406-0.095 c-1.435 0-2.846 0.1-4.235 0.274l-28.171-151.236C379.217 202.3 390 201.3 401 201.327z"></path><path class="single fat outer" d="M346.042 83.046l18.884 101.4 c11.825-2.069 23.87-3.111 36.074-3.111c8.396 0 16.7 0.5 24.9 1.484l13.367-102.25c-12.629-1.547-25.408-2.331-38.308-2.331 C382.4 78.2 364.1 79.8 346 83.046z"></path><path class="double" d="M401 75.214c13.03 0 25.9 0.8 38.7 2.355l2.045-15.642 c-14.604-1.835-28.238-2.729-41.611-2.729c-18.558 0-37.395 1.772-57.521 5.416l2.884 15.5 C363.681 76.9 382.2 75.2 401 75.214z"></path><path class="triple" d="M365.476 187.372l2.567 13.784c10.804-1.88 21.808-2.83 32.957-2.83 c7.652 0 15.2 0.5 22.7 1.344l1.816-13.901c-8.097-0.964-16.285-1.459-24.551-1.459 C388.981 184.3 377.1 185.3 365.5 187.372z"></path><text class="score" transform="matrix(1 0 0 1 375.4799 40)">19</text></g><g class="sector sector_7 dark" transform="rotate(216, 394, 387)"><path class="single little small inner" d="M401 201.327c7.521 0 15 0.4 22.3 1.319l-19.938 152.518c-0.796-0.056-1.596-0.095-2.406-0.095 c-1.435 0-2.846 0.1-4.235 0.274l-28.171-151.236C379.217 202.3 390 201.3 401 201.327z"></path><path class="single fat outer" d="M346.042 83.046l18.884 101.4 c11.825-2.069 23.87-3.111 36.074-3.111c8.396 0 16.7 0.5 24.9 1.484l13.367-102.25c-12.629-1.547-25.408-2.331-38.308-2.331 C382.4 78.2 364.1 79.8 346 83.046z"></path><path class="double" d="M401 75.214c13.03 0 25.9 0.8 38.7 2.355l2.045-15.642 c-14.604-1.835-28.238-2.729-41.611-2.729c-18.558 0-37.395 1.772-57.521 5.416l2.884 15.5 C363.681 76.9 382.2 75.2 401 75.214z"></path><path class="triple" d="M365.476 187.372l2.567 13.784c10.804-1.88 21.808-2.83 32.957-2.83 c7.652 0 15.2 0.5 22.7 1.344l1.816-13.901c-8.097-0.964-16.285-1.459-24.551-1.459 C388.981 184.3 377.1 185.3 365.5 187.372z"></path><text class="score" transform="matrix(1 0 0 1 375.4799 40)">7</text></g><g class="sector sector_16 light" transform="rotate(234, 394, 387)"><path class="single little small inner" d="M401 201.327c7.521 0 15 0.4 22.3 1.319l-19.938 152.518c-0.796-0.056-1.596-0.095-2.406-0.095 c-1.435 0-2.846 0.1-4.235 0.274l-28.171-151.236C379.217 202.3 390 201.3 401 201.327z"></path><path class="single fat outer" d="M346.042 83.046l18.884 101.4 c11.825-2.069 23.87-3.111 36.074-3.111c8.396 0 16.7 0.5 24.9 1.484l13.367-102.25c-12.629-1.547-25.408-2.331-38.308-2.331 C382.4 78.2 364.1 79.8 346 83.046z"></path><path class="double" d="M401 75.214c13.03 0 25.9 0.8 38.7 2.355l2.045-15.642 c-14.604-1.835-28.238-2.729-41.611-2.729c-18.558 0-37.395 1.772-57.521 5.416l2.884 15.5 C363.681 76.9 382.2 75.2 401 75.214z"></path><path class="triple" d="M365.476 187.372l2.567 13.784c10.804-1.88 21.808-2.83 32.957-2.83 c7.652 0 15.2 0.5 22.7 1.344l1.816-13.901c-8.097-0.964-16.285-1.459-24.551-1.459 C388.981 184.3 377.1 185.3 365.5 187.372z"></path><text class="score" transform="matrix(1 0 0 1 375.4799 40)">16</text></g><g class="sector sector_8 dark" transform="rotate(252, 394, 387)"><path class="single little small inner" d="M401 201.327c7.521 0 15 0.4 22.3 1.319l-19.938 152.518c-0.796-0.056-1.596-0.095-2.406-0.095 c-1.435 0-2.846 0.1-4.235 0.274l-28.171-151.236C379.217 202.3 390 201.3 401 201.327z"></path><path class="single fat outer" d="M346.042 83.046l18.884 101.4 c11.825-2.069 23.87-3.111 36.074-3.111c8.396 0 16.7 0.5 24.9 1.484l13.367-102.25c-12.629-1.547-25.408-2.331-38.308-2.331 C382.4 78.2 364.1 79.8 346 83.046z"></path><path class="double" d="M401 75.214c13.03 0 25.9 0.8 38.7 2.355l2.045-15.642 c-14.604-1.835-28.238-2.729-41.611-2.729c-18.558 0-37.395 1.772-57.521 5.416l2.884 15.5 C363.681 76.9 382.2 75.2 401 75.214z"></path><path class="triple" d="M365.476 187.372l2.567 13.784c10.804-1.88 21.808-2.83 32.957-2.83 c7.652 0 15.2 0.5 22.7 1.344l1.816-13.901c-8.097-0.964-16.285-1.459-24.551-1.459 C388.981 184.3 377.1 185.3 365.5 187.372z"></path><text class="score" transform="matrix(1 0 0 1 375.4799 40)">8</text></g><g class="sector sector_11 light" transform="rotate(270, 394, 387)"><path class="single little small inner" d="M401 201.327c7.521 0 15 0.4 22.3 1.319l-19.938 152.518c-0.796-0.056-1.596-0.095-2.406-0.095 c-1.435 0-2.846 0.1-4.235 0.274l-28.171-151.236C379.217 202.3 390 201.3 401 201.327z"></path><path class="single fat outer" d="M346.042 83.046l18.884 101.4 c11.825-2.069 23.87-3.111 36.074-3.111c8.396 0 16.7 0.5 24.9 1.484l13.367-102.25c-12.629-1.547-25.408-2.331-38.308-2.331 C382.4 78.2 364.1 79.8 346 83.046z"></path><path class="double" d="M401 75.214c13.03 0 25.9 0.8 38.7 2.355l2.045-15.642 c-14.604-1.835-28.238-2.729-41.611-2.729c-18.558 0-37.395 1.772-57.521 5.416l2.884 15.5 C363.681 76.9 382.2 75.2 401 75.214z"></path><path class="triple" d="M365.476 187.372l2.567 13.784c10.804-1.88 21.808-2.83 32.957-2.83 c7.652 0 15.2 0.5 22.7 1.344l1.816-13.901c-8.097-0.964-16.285-1.459-24.551-1.459 C388.981 184.3 377.1 185.3 365.5 187.372z"></path><text class="score" transform="matrix(1 0 0 1 375.4799 40)">11</text></g><g class="sector sector_14 dark" transform="rotate(288, 394, 387)"><path class="single little small inner" d="M401 201.327c7.521 0 15 0.4 22.3 1.319l-19.938 152.518c-0.796-0.056-1.596-0.095-2.406-0.095 c-1.435 0-2.846 0.1-4.235 0.274l-28.171-151.236C379.217 202.3 390 201.3 401 201.327z"></path><path class="single fat outer" d="M346.042 83.046l18.884 101.4 c11.825-2.069 23.87-3.111 36.074-3.111c8.396 0 16.7 0.5 24.9 1.484l13.367-102.25c-12.629-1.547-25.408-2.331-38.308-2.331 C382.4 78.2 364.1 79.8 346 83.046z"></path><path class="double" d="M401 75.214c13.03 0 25.9 0.8 38.7 2.355l2.045-15.642 c-14.604-1.835-28.238-2.729-41.611-2.729c-18.558 0-37.395 1.772-57.521 5.416l2.884 15.5 C363.681 76.9 382.2 75.2 401 75.214z"></path><path class="triple" d="M365.476 187.372l2.567 13.784c10.804-1.88 21.808-2.83 32.957-2.83 c7.652 0 15.2 0.5 22.7 1.344l1.816-13.901c-8.097-0.964-16.285-1.459-24.551-1.459 C388.981 184.3 377.1 185.3 365.5 187.372z"></path><text class="score" transform="matrix(1 0 0 1 375.4799 40)">14</text></g><g class="sector sector_9 light" transform="rotate(306, 394, 387)"><path class="single little small inner" d="M401 201.327c7.521 0 15 0.4 22.3 1.319l-19.938 152.518c-0.796-0.056-1.596-0.095-2.406-0.095 c-1.435 0-2.846 0.1-4.235 0.274l-28.171-151.236C379.217 202.3 390 201.3 401 201.327z"></path><path class="single fat outer" d="M346.042 83.046l18.884 101.4 c11.825-2.069 23.87-3.111 36.074-3.111c8.396 0 16.7 0.5 24.9 1.484l13.367-102.25c-12.629-1.547-25.408-2.331-38.308-2.331 C382.4 78.2 364.1 79.8 346 83.046z"></path><path class="double" d="M401 75.214c13.03 0 25.9 0.8 38.7 2.355l2.045-15.642 c-14.604-1.835-28.238-2.729-41.611-2.729c-18.558 0-37.395 1.772-57.521 5.416l2.884 15.5 C363.681 76.9 382.2 75.2 401 75.214z"></path><path class="triple" d="M365.476 187.372l2.567 13.784c10.804-1.88 21.808-2.83 32.957-2.83 c7.652 0 15.2 0.5 22.7 1.344l1.816-13.901c-8.097-0.964-16.285-1.459-24.551-1.459 C388.981 184.3 377.1 185.3 365.5 187.372z"></path><text class="score" transform="matrix(1 0 0 1 375.4799 40)">9</text></g><g class="sector sector_12 dark" transform="rotate(324, 394, 387)"><path class="single little small inner" d="M401 201.327c7.521 0 15 0.4 22.3 1.319l-19.938 152.518c-0.796-0.056-1.596-0.095-2.406-0.095 c-1.435 0-2.846 0.1-4.235 0.274l-28.171-151.236C379.217 202.3 390 201.3 401 201.327z"></path><path class="single fat outer" d="M346.042 83.046l18.884 101.4 c11.825-2.069 23.87-3.111 36.074-3.111c8.396 0 16.7 0.5 24.9 1.484l13.367-102.25c-12.629-1.547-25.408-2.331-38.308-2.331 C382.4 78.2 364.1 79.8 346 83.046z"></path><path class="double" d="M401 75.214c13.03 0 25.9 0.8 38.7 2.355l2.045-15.642 c-14.604-1.835-28.238-2.729-41.611-2.729c-18.558 0-37.395 1.772-57.521 5.416l2.884 15.5 C363.681 76.9 382.2 75.2 401 75.214z"></path><path class="triple" d="M365.476 187.372l2.567 13.784c10.804-1.88 21.808-2.83 32.957-2.83 c7.652 0 15.2 0.5 22.7 1.344l1.816-13.901c-8.097-0.964-16.285-1.459-24.551-1.459 C388.981 184.3 377.1 185.3 365.5 187.372z"></path><text class="score" transform="matrix(1 0 0 1 375.4799 40)">12</text></g><g class="sector sector_5 light" transform="rotate(342, 394, 387)"><path class="single little small inner" d="M401 201.327c7.521 0 15 0.4 22.3 1.319l-19.938 152.518c-0.796-0.056-1.596-0.095-2.406-0.095 c-1.435 0-2.846 0.1-4.235 0.274l-28.171-151.236C379.217 202.3 390 201.3 401 201.327z"></path><path class="single fat outer" d="M346.042 83.046l18.884 101.4 c11.825-2.069 23.87-3.111 36.074-3.111c8.396 0 16.7 0.5 24.9 1.484l13.367-102.25c-12.629-1.547-25.408-2.331-38.308-2.331 C382.4 78.2 364.1 79.8 346 83.046z"></path><path class="double" d="M401 75.214c13.03 0 25.9 0.8 38.7 2.355l2.045-15.642 c-14.604-1.835-28.238-2.729-41.611-2.729c-18.558 0-37.395 1.772-57.521 5.416l2.884 15.5 C363.681 76.9 382.2 75.2 401 75.214z"></path><path class="triple" d="M365.476 187.372l2.567 13.784c10.804-1.88 21.808-2.83 32.957-2.83 c7.652 0 15.2 0.5 22.7 1.344l1.816-13.901c-8.097-0.964-16.285-1.459-24.551-1.459 C388.981 184.3 377.1 185.3 365.5 187.372z"></path><text class="score" transform="matrix(1 0 0 1 375.4799 40)">5</text></g></g><g class="sector sector_bull" transform="translate(-7.5, -2)"><path class="light single" d="M432.438 389c0 17.087-13.852 30.938-30.938 30.938S370.562 406.1 370.6 389 s13.852-30.938 30.938-30.938S432.438 371.9 432.4 389z M401.5 372.602c-9.057 0-16.398 7.342-16.398 16.4 s7.342 16.4 16.4 16.398s16.398-7.342 16.398-16.398S410.557 372.6 401.5 372.602z"></path><circle class="dark double" cx="401.5" cy="389" r="13.7"></circle></g></svg>