<svg xmlns="http://www.w3.org/2000/svg" xmlns:xlink="http://www.w3.org/1999/xlink" width="640" height="480">
  <g class="background">
    <path fill="#ff0000" stroke="#000000" stroke-width="14.79" stroke-linejoin="round" stroke-miterlimit="4" stroke-dashoffset="0" id="path4952" d="m373.91 119.47c-24.43-6.62-49.14 0.96-66.21 17.4 -8.92-10.83-20.99-19.19-35.47-23.12 -37.27-10.09-75.66 12.31-85.64 49.99 -0.73 2.77-0.93 5.55-1.32 8.32 -33.56-3.53-65.67 17.71-74.68 51.7 -8.93 33.68 7.92 68.12 38.2 82.28 -1.65 3.61-3.18 7.32-4.23 11.29 -9.99 37.67 12.2 76.4 49.47 86.49 18.25 4.95 36.7 2.04 52.01-6.58 8.44 18.25 24.17 32.94 44.92 38.56 29.59 8.02 59.62-4.68 75.84-29.02 6.57 4.7 13.87 8.59 22.09 10.82 37.27 10.09 75.57-12.34 85.56-50.01 5.02-18.94 1.91-38.11-7.15-53.83 8.97-8.65 15.99-19.6 19.43-32.58 9.99-37.67-12.2-76.4-49.47-86.49 -3.92-1.06-7.85-1.66-11.77-2.02 2.32-33.08-18.71-64.3-51.58-73.2l0 0z"/>
  </g>
  <g class="foreground" fill="black" transform="rotate(1.97 308.75,243.29) matrix(4.5,0,0,3.49,60,17) translate(-15 0)">
    <polygon id="svg_2" fill="#FFF466" stroke="#000000" stroke-width="4.38" stroke-miterlimit="7" points="76.44 10.91 60.36 48.29 44.05 30.7 44.24 56.35 9.12 43.38 34.46 67.63 18.77 76.06 37.55 82.46 10.61 98.63 44.23 96.24 45.18 121 59.88 98.81 71.36 111.41 75.9 100.91 94.77 114.23 92.08 99.34 127.08 116.41 102.09 91.31 125.55 77.84 100.44 73.93 123.77 52.73 89.18 58.45 98.29 32.14 79 46.95"/>
    <polygon id="svg_3" points="79.47 0 77.5 5.42 79.19 45.53 83.11 42.92"/>
    <polygon id="svg_4" points="131.22 50.37 127.72 50.61 101.79 73.91 106.3 75.3"/>
    <polygon id="svg_7" points="132.28 77.6 129.29 76.93 103.58 91.88 107.71 94.19"/>
    <polygon id="svg_8" points="133.29 120.7 140.3 124.32 107.39 89.02 105.93 93.49"/>
    <polygon id="svg_9" points="140.3 124.32 124.91 116.42 93.73 100.83 94.1 105.53"/>
    <polygon id="svg_10" points="96.53 116.84 98.92 120.51 97.98 103.23 92.06 99.87"/>
    <polygon id="svg_11" points="43.79 121.78 44.33 129.38 63.5 105.69 58.45 102.26"/>
    <polygon id="svg_12" points="7.22 99.13 1 102.5 44.08 101.2 44.06 96.79"/>
    <polygon id="svg_13" points="71.94 113.91 73.43 117.31 79.19 103.4 76.41 101.54"/>
    <polygon id="svg_14" points="73.43 117.31 70.69 111.99 59.95 100.75 57.13 102.92"/>
    <polygon id="svg_15" points="98.92 120.51 97.14 116.21 77.11 102.97 74.05 105.53"/>
    <polygon id="svg_16" points="103.39 26.48 100.87 28.45 90.46 58.81 95.08 57.89"/>
  </g>
</svg>
